<svg width="98" height="98" viewBox="0 0 98 98" fill="none" xmlns="http://www.w3.org/2000/svg">
<path d="M49 0C21.9801 0 0 21.9801 0 49C0 76.0199 21.9801 98 49 98C76.0199 98 98 76.0199 98 49C98 21.9801 76.0152 0 49 0ZM49 93.8214C24.2859 93.8214 4.17862 73.7141 4.17862 49C4.17862 24.2859 24.2859 4.17862 49 4.17862C73.7141 4.17862 93.8214 24.2859 93.8214 49C93.8214 73.7141 73.7141 93.8214 49 93.8214Z" fill="black"/>
<path d="M85.7088 53.1834H84.683C82.3772 53.1834 80.4997 51.3058 80.4997 49C80.4997 46.6943 82.3772 44.8167 84.683 44.8167H85.7088C86.3064 44.8167 86.8664 44.5532 87.2523 44.1015C87.6382 43.645 87.8028 43.0474 87.704 42.4592C84.9418 25.9894 72.0154 13.0629 55.5409 10.296C54.948 10.1972 54.3503 10.3619 53.8986 10.7478C53.4421 11.1336 53.1833 11.6936 53.1833 12.2912V13.3171C53.1833 15.6228 51.3058 17.5004 49 17.5004C46.6942 17.5004 44.8167 15.6228 44.8167 13.3171V12.2912C44.8167 11.6936 44.5579 11.1336 44.1014 10.7478C43.645 10.3619 43.0474 10.1972 42.4591 10.296C25.9846 13.0582 13.0629 25.9847 10.296 42.4592C10.1972 43.0474 10.3619 43.645 10.7477 44.0968C11.1336 44.5532 11.6936 44.812 12.2912 44.812H13.317C15.6228 44.812 17.5003 46.6896 17.5003 48.9953C17.5003 51.3011 15.6228 53.1787 13.317 53.1787H12.2912C11.6983 53.1787 11.1336 53.4375 10.7477 53.8939C10.3666 54.3504 10.2019 54.948 10.296 55.5362C13.0629 72.006 25.9846 84.9324 42.4544 87.6947C42.5674 87.7135 42.685 87.7229 42.798 87.7229C43.2685 87.7229 43.7297 87.5535 44.0967 87.2429C44.5532 86.8571 44.812 86.2971 44.812 85.6995V84.6736C44.812 82.3679 46.6895 80.4903 48.9953 80.4903C51.3011 80.4903 53.1786 82.3679 53.1786 84.6736V85.6995C53.1786 86.2971 53.4374 86.8571 53.8939 87.2429C54.3456 87.6241 54.915 87.7935 55.5362 87.6947C72.006 84.9324 84.9324 72.006 87.6993 55.5315C87.7981 54.9433 87.6334 54.3457 87.2476 53.8892C86.8664 53.4422 86.3064 53.1834 85.7088 53.1834ZM57.1031 83.2619C56.4255 79.3468 53.028 76.4529 48.9953 76.4529C44.9673 76.4529 41.5698 79.3468 40.8875 83.2619C27.961 80.2221 17.7686 70.0343 14.7287 57.1032C18.6485 56.4256 21.5378 53.0281 21.5378 48.9953C21.5378 44.9626 18.6532 41.5698 14.7334 40.8922C17.778 27.9658 27.9657 17.778 40.8922 14.7335C41.5698 18.6533 44.9673 21.5425 49 21.5425C53.0328 21.5425 56.4255 18.6486 57.1079 14.7335C70.039 17.7733 80.2267 27.9611 83.2666 40.8922C79.3515 41.5698 76.4575 44.9673 76.4575 49C76.4575 53.0328 79.3515 56.4256 83.2666 57.1079C80.222 70.0343 70.0343 80.2221 57.1031 83.2619Z" fill="black"/>
<path d="M37.5418 25.6128H31.815C30.7657 25.6128 29.914 26.4645 29.914 27.5139C29.914 28.5632 30.7657 29.415 31.815 29.415H37.5418C38.5912 29.415 39.4429 28.5632 39.4429 27.5139C39.4429 26.4645 38.5912 25.6128 37.5418 25.6128Z" fill="black"/>
<path d="M46.1343 29.4198H51.861C52.9104 29.4198 53.7621 28.5681 53.7621 27.5188C53.7621 26.4694 52.9104 25.6177 51.861 25.6177H46.1343C45.0849 25.6177 44.2332 26.4694 44.2332 27.5188C44.2332 28.5681 45.0849 29.4198 46.1343 29.4198Z" fill="black"/>
<path d="M31.815 39.4429C32.8644 39.4429 33.7161 38.5912 33.7161 37.5418V33.2456C33.7161 32.1962 32.8644 31.3445 31.815 31.3445C30.7657 31.3445 29.9139 32.1962 29.9139 33.2456V37.5418C29.9092 38.5912 30.7657 39.4429 31.815 39.4429Z" fill="black"/>
<path d="M37.5416 31.3445C36.4922 31.3445 35.6405 32.1962 35.6405 33.2456V37.5418C35.6405 38.5912 36.4922 39.4429 37.5416 39.4429C38.591 39.4429 39.4427 38.5912 39.4427 37.5418V33.2456C39.4427 32.1962 38.591 31.3445 37.5416 31.3445Z" fill="black"/>
<path d="M37.5418 44.2332H31.815C30.7657 44.2332 29.914 45.0849 29.914 46.1342C29.914 47.1836 30.7657 48.0353 31.815 48.0353H37.5418C38.5912 48.0353 39.4429 47.1836 39.4429 46.1342C39.4429 45.0849 38.5912 44.2332 37.5418 44.2332Z" fill="black"/>
<path d="M37.5418 49.96H31.815C30.7657 49.96 29.914 50.8117 29.914 51.861C29.914 52.9104 30.7657 53.7621 31.815 53.7621H37.5418C38.5912 53.7621 39.4429 52.9104 39.4429 51.861C39.4429 50.8117 38.5912 49.96 37.5418 49.96Z" fill="black"/>
<path d="M46.1343 39.4429C47.1836 39.4429 48.0353 38.5912 48.0353 37.5418V33.2456C48.0353 32.1962 47.1836 31.3445 46.1343 31.3445C45.0849 31.3445 44.2332 32.1962 44.2332 33.2456V37.5418C44.2332 38.5912 45.0849 39.4429 46.1343 39.4429Z" fill="black"/>
<path d="M51.8611 31.3445C50.8117 31.3445 49.96 32.1962 49.96 33.2456V37.5418C49.96 38.5912 50.8117 39.4429 51.8611 39.4429C52.9104 39.4429 53.7622 38.5912 53.7622 37.5418V33.2456C53.7669 32.1962 52.9104 31.3445 51.8611 31.3445Z" fill="black"/>
<path d="M31.815 66.6557C32.8644 66.6557 33.7161 65.804 33.7161 64.7546V60.4583C33.7161 59.409 32.8644 58.5573 31.815 58.5573C30.7657 58.5573 29.9139 59.409 29.9139 60.4583V64.7546C29.9092 65.804 30.7657 66.6557 31.815 66.6557Z" fill="black"/>
<path d="M37.5416 58.5524C36.4922 58.5524 35.6405 59.4041 35.6405 60.4535V64.7497C35.6405 65.7991 36.4922 66.6508 37.5416 66.6508C38.591 66.6508 39.4427 65.7991 39.4427 64.7497V60.4535C39.4427 59.4088 38.591 58.5524 37.5416 58.5524Z" fill="black"/>
<path d="M46.1343 66.6557C47.1836 66.6557 48.0353 65.804 48.0353 64.7546V60.4583C48.0353 59.409 47.1836 58.5573 46.1343 58.5573C45.0849 58.5573 44.2332 59.409 44.2332 60.4583V64.7546C44.2332 65.804 45.0849 66.6557 46.1343 66.6557Z" fill="black"/>
<path d="M51.8611 58.5524C50.8117 58.5524 49.96 59.4041 49.96 60.4535V64.7497C49.96 65.7991 50.8117 66.6508 51.8611 66.6508C52.9104 66.6508 53.7622 65.7991 53.7622 64.7497V60.4535C53.7669 59.4088 52.9104 58.5524 51.8611 58.5524Z" fill="black"/>
<path d="M66.1851 25.6128H60.4583C59.4089 25.6128 58.5572 26.4645 58.5572 27.5139C58.5572 28.5632 59.4089 29.415 60.4583 29.415H66.1851C67.2344 29.415 68.0862 28.5632 68.0862 27.5139C68.0862 26.4645 67.2344 25.6128 66.1851 25.6128Z" fill="black"/>
<path d="M37.5418 68.5801H31.815C30.7657 68.5801 29.914 69.4318 29.914 70.4812C29.914 71.5305 30.7657 72.3823 31.815 72.3823H37.5418C38.5912 72.3823 39.4429 71.5305 39.4429 70.4812C39.4429 69.4318 38.5912 68.5801 37.5418 68.5801Z" fill="black"/>
<path d="M51.861 68.5801H46.1343C45.0849 68.5801 44.2332 69.4318 44.2332 70.4812C44.2332 71.5305 45.0849 72.3823 46.1343 72.3823H51.861C52.9104 72.3823 53.7621 71.5305 53.7621 70.4812C53.7621 69.4318 52.9104 68.5801 51.861 68.5801Z" fill="black"/>
<path d="M66.1851 68.5801H60.4583C59.4089 68.5801 58.5572 69.4318 58.5572 70.4812C58.5572 71.5305 59.4089 72.3823 60.4583 72.3823H66.1851C67.2344 72.3823 68.0862 71.5305 68.0862 70.4812C68.0862 69.4318 67.2344 68.5801 66.1851 68.5801Z" fill="black"/>
<path d="M60.4583 39.4429C61.5076 39.4429 62.3594 38.5912 62.3594 37.5418V33.2456C62.3594 32.1962 61.5076 31.3445 60.4583 31.3445C59.4089 31.3445 58.5572 32.1962 58.5572 33.2456V37.5418C58.5525 38.5912 59.4089 39.4429 60.4583 39.4429Z" fill="black"/>
<path d="M66.1851 31.3445C65.1358 31.3445 64.284 32.1962 64.284 33.2456V37.5418C64.284 38.5912 65.1358 39.4429 66.1851 39.4429C67.2345 39.4429 68.0862 38.5912 68.0862 37.5418V33.2456C68.0862 32.1962 67.2345 31.3445 66.1851 31.3445Z" fill="black"/>
<path d="M66.1851 44.2332H60.4583C59.4089 44.2332 58.5572 45.0849 58.5572 46.1342C58.5572 47.1836 59.4089 48.0353 60.4583 48.0353H66.1851C67.2344 48.0353 68.0862 47.1836 68.0862 46.1342C68.0862 45.0849 67.2344 44.2332 66.1851 44.2332Z" fill="black"/>
<path d="M66.1851 49.96H60.4583C59.4089 49.96 58.5572 50.8117 58.5572 51.861C58.5572 52.9104 59.4089 53.7621 60.4583 53.7621H66.1851C67.2344 53.7621 68.0862 52.9104 68.0862 51.861C68.0862 50.8117 67.2344 49.96 66.1851 49.96Z" fill="black"/>
<path d="M60.4583 66.6557C61.5076 66.6557 62.3594 65.804 62.3594 64.7546V60.4583C62.3594 59.409 61.5076 58.5573 60.4583 58.5573C59.4089 58.5573 58.5572 59.409 58.5572 60.4583V64.7546C58.5525 65.804 59.4089 66.6557 60.4583 66.6557Z" fill="black"/>
<path d="M66.1851 58.5524C65.1358 58.5524 64.284 59.4041 64.284 60.4535V64.7497C64.284 65.7991 65.1358 66.6508 66.1851 66.6508C67.2345 66.6508 68.0862 65.7991 68.0862 64.7497V60.4535C68.0862 59.4088 67.2345 58.5524 66.1851 58.5524Z" fill="black"/>
<path d="M54.0163 44.8026L49.7388 42.3322C49.2918 42.0734 48.7083 42.0734 48.2613 42.3322L43.9838 44.8026C43.5274 45.0662 43.245 45.5555 43.245 46.0826V51.0235C43.245 51.5835 43.5556 52.0917 44.0591 52.3411L48.3366 54.4916C48.5436 54.5951 48.7695 54.6469 49.0001 54.6469C49.2306 54.6469 49.4565 54.5904 49.6636 54.4916L53.941 52.3411C54.4445 52.087 54.7551 51.5835 54.7551 51.0235V46.0826C54.7551 45.5555 54.4727 45.0662 54.0163 44.8026ZM53.3951 51.0235C53.3951 51.0706 53.3716 51.1082 53.3293 51.127L49.0518 53.2775C49.0189 53.2916 48.9765 53.2916 48.9436 53.2775L44.6614 51.127C44.6191 51.1082 44.5956 51.0659 44.5956 51.0235V46.0826C44.5956 46.0402 44.6191 46.0026 44.6567 45.9791L48.9342 43.5086C48.953 43.4992 48.9718 43.4945 48.9954 43.4945C49.0142 43.4945 49.0377 43.4992 49.0565 43.5086L53.334 45.9791C53.3716 45.9979 53.3904 46.0402 53.3904 46.0826V51.0235H53.3951Z" fill="black"/>
<path d="M51.8092 47.8143L50.5199 47.1367C50.4399 47.0943 50.3458 47.0943 50.2658 47.1367L49.5364 47.5179V48.6896L50.3928 48.2378L50.9152 48.5107V49.0566L50.5152 48.8448C50.4352 48.8025 50.3411 48.8025 50.2611 48.8448L49.5129 49.2401V46.2709C49.5129 46.172 49.4611 46.0826 49.3811 46.0356C49.3011 45.9838 49.1976 45.9838 49.1129 46.0262L47.5977 46.8261L46.4354 46.2144C46.3507 46.172 46.2472 46.172 46.1672 46.2238C46.0872 46.2709 46.0354 46.3603 46.0354 46.4591V48.7319C46.0354 48.8354 46.0919 48.9248 46.1813 48.9719L47.4706 49.6495C47.5506 49.6919 47.6447 49.6919 47.7247 49.6495L48.4494 49.2684V48.0966L47.593 48.5437L47.0706 48.2708V47.7249L47.4659 47.9367C47.5459 47.979 47.64 47.979 47.72 47.9367L48.4682 47.5414V50.5106C48.4682 50.6048 48.52 50.6942 48.6 50.7459C48.6423 50.7742 48.6941 50.7836 48.7411 50.7836C48.7835 50.7836 48.8306 50.7742 48.8682 50.7506L50.3834 49.9507L51.541 50.5624C51.6257 50.6095 51.7292 50.6048 51.8092 50.5577C51.8892 50.5107 51.941 50.4212 51.941 50.3224V48.0496C51.9551 47.9508 51.8986 47.8567 51.8092 47.8143Z" fill="black"/>
</svg>

