<svg width="225" height="47" viewBox="0 0 225 47" fill="none" xmlns="http://www.w3.org/2000/svg">
<g clip-path="url(#clip0_12_5)">
<path d="M21.2731 47C20.5805 47 19.9126 46.825 19.2942 46.525L2.42415 37.95C0.939973 37.2 0 35.675 0 33.975L9.89595e-10 14.2751C1.06871e-09 12.7 0.841029 11.225 2.20151 10.425L19.0716 0.575024C20.4073 -0.199975 22.1388 -0.199975 23.4746 0.575024L40.3446 10.425C41.7051 11.225 42.5462 12.7 42.5462 14.2751V33.975C42.5462 35.675 41.6062 37.2 40.122 37.95L23.2519 46.525C22.6583 46.85 21.9657 47 21.2731 47ZM21.2731 2.52502C20.9515 2.52502 20.6052 2.62503 20.3331 2.77503L3.46306 12.625C2.86939 12.975 2.52309 13.6 2.52309 14.2751V33.975C2.52309 34.7001 2.91887 35.35 3.56201 35.675L20.4321 44.25C20.9515 44.5251 21.5946 44.5251 22.1388 44.25L39.0089 35.675C39.652 35.35 40.0478 34.7001 40.0478 33.975V14.2751C40.0478 13.6 39.6768 12.975 39.1078 12.625L22.2131 2.80002C21.941 2.62503 21.6194 2.52502 21.2731 2.52502Z" fill="white"/>
<path d="M34.0614 32.5002C34.0614 32.6502 33.9872 32.8001 33.8635 32.8752C33.7399 32.9502 33.5667 32.9502 33.443 32.8752L27.7043 29.8252L20.3576 33.7501C20.2339 33.8252 20.0608 33.8252 19.9371 33.7501C19.8134 33.6752 19.7393 33.5251 19.7393 33.3752V18.1501L15.064 20.6502C14.9404 20.7251 14.7919 20.7251 14.6683 20.6502L11.601 19.0251V23.4502L14.8415 25.1752L17.9582 23.5252V27.0752L15.064 28.6251C14.9404 28.7002 14.7919 28.7002 14.6683 28.6251L8.73162 25.4752C8.58321 25.4002 8.509 25.2502 8.509 25.1001V14.5002C8.509 14.3502 8.58321 14.2001 8.70689 14.1252C8.83057 14.0502 9.00372 14.0502 9.1274 14.1001L14.8415 17.2001L22.2129 13.2501C22.3366 13.2002 22.5097 13.2002 22.6334 13.2752C22.7571 13.3501 22.8312 13.5002 22.8312 13.6502V28.8752L27.5063 26.3751C27.63 26.3001 27.7784 26.3001 27.9021 26.3751L30.9447 28.0001V23.5502L27.7043 21.8252L24.5875 23.5001V19.9252L27.5063 18.3751C27.63 18.3002 27.7784 18.3002 27.9021 18.3751L33.8388 21.5252C33.9872 21.6001 34.0614 21.7502 34.0614 21.9001V32.5002Z" fill="white"/>
<path d="M72.8979 15.0004L73.6648 33.1504H70.8944L70.2512 16.1754H69.707L65.8235 29.9004C65.6502 30.5504 65.2793 30.8504 64.6361 30.8504H62.2366C61.5936 30.8504 61.1731 30.5504 61.0247 29.9004L57.1163 16.1754H56.5968L55.9537 33.1504H53.208L53.9253 15.0004C53.9501 14.2754 54.3459 13.8504 55.0632 13.8504H58.1305C58.7736 13.8504 59.0952 14.1754 59.2931 14.8004L62.5336 26.1004C62.7808 27.0004 62.9788 27.8254 63.1766 28.7004H63.6714C63.8692 27.8004 64.0672 27.0004 64.3393 26.0755L67.5549 14.8004C67.7529 14.1754 68.0991 13.8504 68.767 13.8504H71.7848C72.4774 13.8504 72.8732 14.2754 72.8979 15.0004Z" fill="white"/>
<path d="M80.6902 33.1504H77.9198V13.8504H80.6902V33.1504Z" fill="white"/>
<path d="M99.7863 23.5002C99.7863 31.0003 97.7827 33.4003 92.2418 33.4003C89.595 33.4003 87.3688 33.3003 85.3404 33.1503V13.8503C87.3688 13.7003 89.5456 13.6003 92.2418 13.6003C97.8075 13.6003 99.7863 16.0003 99.7863 23.5002ZM96.8675 23.5002C96.8675 17.8753 95.7296 16.0252 92.2418 16.0252C90.6587 16.0252 89.3477 16.0503 88.1109 16.0753V30.9003C89.2982 30.9253 90.6834 30.9503 92.2418 30.9503C95.7296 30.9752 96.8675 29.1253 96.8675 23.5002Z" fill="white"/>
<path d="M123.262 32.3501C123.112 32.8252 122.742 33.1502 122.173 33.1502H119.105C118.585 33.1502 118.141 32.8252 118.017 32.3001L115.271 18.1251C115.123 17.4001 114.999 16.6751 114.876 15.9502H114.282C114.134 16.6751 114.035 17.4251 113.861 18.1251L111.116 32.3001C111.042 32.8001 110.572 33.1502 110.027 33.1502H106.935C106.416 33.1502 105.995 32.8252 105.896 32.3501L102.235 13.8751H105.179L107.925 28.5751C108.073 29.3251 108.147 30.1502 108.246 31.0251H108.89C108.988 30.1251 109.137 29.3501 109.31 28.5751L112.056 14.8001C112.155 14.2751 112.55 13.8751 113.119 13.8751H116.088C116.607 13.8751 117.028 14.2751 117.127 14.8001L119.848 28.6251C120.021 29.4251 120.144 30.2751 120.268 31.0501H120.911C121.059 30.2751 121.134 29.4002 121.282 28.6502L124.027 13.8751H126.971L123.262 32.3501Z" fill="white"/>
<path d="M141.787 30.8255L141.937 32.9755C139.413 33.2006 136.495 33.2006 133.748 33.2006C131.373 33.2006 129.939 31.8505 129.914 29.7255V17.2755C129.939 15.1506 131.399 13.8005 133.748 13.8005C136.495 13.8005 139.413 13.8005 141.937 14.0255L141.787 16.2005H134.218C133.106 16.2005 132.685 16.6755 132.685 18.0005V21.8505H140.749V24.1256H132.685V29.0505C132.685 30.3755 133.106 30.8505 134.218 30.8505H141.787V30.8255Z" fill="white"/>
<path d="M156.802 14.1004L156.629 16.1505C155.02 16.1004 152.943 16.0004 151.137 16.0004C148.54 16.0004 147.551 16.1004 147.551 18.6754C147.551 20.6505 148.244 21.2004 149.851 21.6005L153.635 22.6755C156.603 23.4754 157.52 25.2754 157.52 28.1504C157.52 32.6005 155.615 33.4754 151.013 33.4754C149.801 33.4754 147.675 33.4254 145.003 32.9255L145.201 30.8504C148.663 30.9504 149.628 31.0005 151.064 31.0005C153.858 30.9754 154.7 30.5504 154.7 28.1504C154.7 26.0504 153.982 25.6004 152.424 25.1754L148.54 24.0754C145.745 23.3005 144.755 21.5254 144.755 18.6005C144.755 14.1255 146.709 13.5004 151.038 13.5004C152.844 13.5254 154.848 13.6254 156.802 14.1004Z" fill="white"/>
<path d="M174.39 16.3505H168.33V33.1504H165.535V16.3505H159.524V13.8504H174.39V16.3505Z" fill="white"/>
<path d="M189.085 30.8255L189.233 32.9755C186.71 33.2006 183.791 33.2006 181.046 33.2006C178.671 33.2006 177.236 31.8505 177.211 29.7255V17.2755C177.236 15.1506 178.695 13.8005 181.046 13.8005C183.791 13.8005 186.71 13.8005 189.233 14.0255L189.085 16.2005H181.516C180.402 16.2005 179.981 16.6755 179.981 18.0005V21.8505H188.045V24.1256H179.981V29.0505C179.981 30.3755 180.402 30.8505 181.516 30.8505H189.085V30.8255Z" fill="white"/>
<path d="M206.572 33.1503H203.603L201.971 27.1503C201.525 25.7502 200.784 25.2253 199.572 25.2253C197.938 25.2253 196.677 25.2253 195.638 25.2002V33.1753H192.893V13.8503C194.996 13.6253 196.43 13.6003 199.572 13.6003C204.048 13.6003 205.88 14.8502 205.88 19.2003C205.88 22.2503 204.914 23.7753 202.367 24.1253V24.2502C203.307 24.5253 204.37 25.3753 204.766 27.0503L206.572 33.1503ZM203.084 19.3753C203.084 16.7253 202.193 16.0252 199.521 16.0252C198.037 16.0252 196.702 16.0252 195.638 16.0503V22.8253H199.521C202.193 22.7753 203.084 22.0253 203.084 19.3753Z" fill="white"/>
<path d="M225 32.0504C225 32.7754 224.628 33.1504 223.986 33.1504H221.364C220.745 33.1504 220.423 32.8754 220.176 32.2755L214.24 19.1254C213.918 18.4004 213.324 17.2504 213.102 16.4504H212.705C212.805 17.3504 212.855 18.2755 212.855 19.1254V33.1255H210.084V14.9504C210.084 14.2253 210.48 13.8504 211.122 13.8504H213.671C214.289 13.8504 214.61 14.1254 214.882 14.7254L220.67 27.5254C221.042 28.3004 221.587 29.4254 222.006 30.4004H222.427C222.352 29.4004 222.279 28.4255 222.279 27.4004V13.8504H225.024V32.0504H225Z" fill="white"/>
</g>
<defs>
<clipPath id="clip0_12_5">
<rect width="225" height="47" fill="white"/>
</clipPath>
</defs>
</svg>
