<svg width="104" height="62" viewBox="0 0 104 62" fill="none" xmlns="http://www.w3.org/2000/svg">
<path d="M95.3239 44.4008H79.354C78.2705 44.4008 77.3911 45.281 77.3911 46.3604C77.3911 47.4399 78.2746 48.316 79.354 48.316H95.3239C96.4075 48.316 97.2868 47.4358 97.2868 46.3604C97.2868 45.2768 96.4075 44.4008 95.3239 44.4008Z" fill="black"/>
<path d="M101.046 29.2382H89.5935C88.51 29.2382 87.6307 30.1184 87.6307 31.1937C87.6307 32.2732 88.5142 33.1534 89.5935 33.1534H101.046C102.129 33.1534 103.009 32.2732 103.009 31.1937C103.013 30.1184 102.129 29.2382 101.046 29.2382Z" fill="black"/>
<path d="M85.3718 21.279C85.3718 22.3585 86.2553 23.2387 87.3347 23.2387H98.3328C99.4163 23.2387 100.3 22.3585 100.3 21.279C100.3 20.1995 99.4163 19.3193 98.3328 19.3193H87.3347C86.2512 19.3193 85.3718 20.1995 85.3718 21.279Z" fill="black"/>
<path d="M71.3607 11.9871H90.948C92.0315 11.9871 92.9109 11.1069 92.9109 10.0316C92.9109 8.9521 92.0274 8.0719 90.948 8.0719H71.3607C70.2771 8.0719 69.3978 8.9521 69.3978 10.0316C69.3978 11.1111 70.2771 11.9871 71.3607 11.9871Z" fill="black"/>
<path d="M79.583 39.0407C82.6127 37.7743 84.559 34.8597 84.559 31.5548C84.559 27.4486 81.4 23.9361 77.3242 23.467C76.2573 21.9308 74.4653 20.9842 72.6024 20.9842C71.3688 20.9842 70.1686 21.3827 69.1809 22.1093C67.0513 19.8009 64.1048 17.8578 60.4207 16.3299C59.2705 15.8524 58.0536 15.4165 56.7825 15.0262C58.2286 14.2166 59.4747 13.2575 60.4958 12.1739C63.934 8.51606 63.5839 4.58838 63.5672 4.41816C63.4964 3.74555 63.0713 3.14353 62.4545 2.8529C52.4316 -1.88855 43.609 0.154179 37.9704 2.70758C33.8362 4.57593 30.8148 6.95496 29.2603 8.32092C25.5054 6.30726 20.7961 6.04985 14.874 7.52376C14.824 7.53622 14.7698 7.55283 14.7198 7.56943C2.8341 11.576 -1.10836 21.719 0.258581 29.9896C1.62552 38.2518 7.68925 43.807 15.3491 43.807C19.0165 43.807 22.263 43.45 25.0094 42.7441C26.3139 44.6 29.1228 47.8302 34.2238 50.5289C33.9779 50.832 33.7529 51.1351 33.5528 51.4382C30.523 55.972 31.9567 60.4395 32.0192 60.6263C32.2859 61.4276 33.036 61.9632 33.9112 61.9632C40.9085 61.8719 47.1014 61.029 52.3233 59.4596C54.0611 60.2775 58.1786 61.9964 61.9669 61.9964C63.088 61.9964 64.109 61.8428 65.0008 61.5439C66.7554 60.9543 68.0431 59.8125 68.8308 58.1435C69.5893 56.4412 69.6601 54.7306 69.0308 53.1944C68.6432 52.2436 68.0098 51.3884 67.1429 50.6369C67.3847 50.3711 67.5972 50.1262 67.7931 49.8895C69.5226 47.8094 70.8645 45.4927 71.7856 43.0057C72.4815 43.2922 73.2275 43.4375 73.9693 43.4375C76.649 43.45 78.9703 41.6107 79.583 39.0407ZM65.2676 56.5284C64.9508 57.1927 64.4882 57.5954 63.7589 57.8404C62.1378 58.3884 59.804 57.9566 57.8536 57.3795C60.2582 56.2502 62.4212 54.9092 64.2924 53.3771C64.6841 53.6677 65.1842 54.1286 65.4093 54.6891C65.6218 55.2247 65.576 55.8267 65.2676 56.5284ZM36.8702 53.5598C38.633 50.9649 43.1006 47.6517 54.357 46.6095C55.1197 46.568 55.6114 46.5057 55.7031 46.4933C56.7617 46.3521 57.5077 45.4097 57.3951 44.3509C57.291 43.342 56.4449 42.5947 55.4447 42.5947C55.3947 42.5947 55.3447 42.5947 55.2947 42.5988C54.8946 42.6279 54.4987 42.6611 54.1236 42.6943C52.0024 42.8023 46.7763 42.7358 43.9633 39.8129C42.1921 37.9695 41.6336 35.1338 42.3088 31.3846C42.3171 31.3431 42.3213 31.2974 42.3254 31.2559C42.4713 29.9439 43.9216 25.8543 47.2889 24.2724C50.302 22.8567 54.2528 23.7161 59.033 26.8258C59.4706 27.1123 59.9957 27.2078 60.5124 27.104C61.025 26.9961 61.4668 26.6971 61.7544 26.257C62.0419 25.8211 62.1419 25.298 62.0336 24.7831C61.9252 24.2724 61.6252 23.8323 61.1834 23.5459C55.1822 19.6431 49.9436 18.6923 45.6094 20.7309C41.0002 22.8982 38.7539 28.034 38.4246 30.7411C37.5328 35.7648 38.4371 39.7299 41.1168 42.5199C41.892 43.3254 42.813 44.0229 43.8674 44.6C41.2961 45.4097 39.0956 46.4476 37.3119 47.6932C32.8652 45.6006 30.223 42.9767 28.9019 41.3616C29.677 40.9962 30.3855 40.5935 31.019 40.1617C33.1902 38.6878 34.1321 37.1391 34.5072 36.3295C34.7197 36.0056 34.8322 35.6278 34.8322 35.2417C34.8322 34.1415 33.9362 33.2488 32.8318 33.2488C31.8775 33.2488 31.0648 33.9131 30.8773 34.8431C30.6231 35.3497 28.0309 39.7839 15.7951 39.8877C17.1787 38.5507 18.1289 36.8153 18.6248 34.7144C18.8707 33.664 18.2164 32.6094 17.1578 32.3603C16.1035 32.1153 15.0449 32.7672 14.7949 33.8176C13.9489 37.409 11.3858 38.3432 10.1773 38.5881C8.68529 37.7577 7.40586 36.5662 6.37232 35.0341L7.54339 31.8662C7.75176 31.3057 7.69342 30.6954 7.38502 30.1847C7.07663 29.674 6.56402 29.3336 5.97224 29.2505C5.2971 29.155 4.68448 29.1467 4.11353 29.2215C2.69241 20.1123 9.01035 13.6644 15.8992 11.3144C21.3587 9.96507 25.4428 10.3138 28.3934 12.3815C29.1853 12.9378 30.2813 12.8257 30.9481 12.1323C30.9815 12.0991 34.3613 8.62816 39.7041 6.23253C46.3596 3.25148 53.0401 3.12277 59.5789 5.85886C59.3955 6.84285 58.8871 8.20467 57.5702 9.57479C55.1197 12.1199 49.4602 15.047 36.3867 14.528C35.3115 14.4906 34.3905 15.3293 34.3446 16.4088C34.303 17.4883 35.149 18.4017 36.2325 18.4432C41.5753 18.6549 46.2304 18.327 50.0687 17.4758C52.1691 17.8038 67.3388 20.5108 69.0308 30.0352C69.7018 33.801 70.0394 41.0668 64.7758 47.4026C61.8252 50.9607 57.5577 53.6636 52.0982 55.4447C51.9524 55.4738 51.8148 55.5195 51.6815 55.5776C47.1389 57.0017 41.717 57.8238 35.5657 58.0189C35.5157 56.8481 35.7408 55.2247 36.8702 53.5598ZM75.7989 37.6249C75.7989 37.683 75.803 37.737 75.8114 37.7951C75.7697 38.7583 74.9529 39.5347 73.9818 39.5347C73.5776 39.5347 73.19 39.4019 72.8691 39.1611C73.6276 35.2002 73.3067 31.6545 72.8983 29.3543C72.6482 27.9552 72.1731 26.5933 71.4771 25.3021C71.798 25.0488 72.1981 24.9077 72.6066 24.9077C73.365 24.9077 74.0277 25.3727 74.2986 26.091C74.5986 26.8881 75.3613 27.3988 76.2239 27.3614C76.3073 27.3573 76.3865 27.349 76.4782 27.3365C78.7703 27.3822 80.6332 29.2713 80.6332 31.559C80.6332 33.5394 79.2746 35.2292 77.3283 35.6693C76.4198 35.8686 75.7739 36.6949 75.7989 37.6249Z" fill="black"/>
<path d="M21.2173 26.7096C22.665 26.7096 23.8387 25.5404 23.8387 24.0981C23.8387 22.6558 22.665 21.4866 21.2173 21.4866C19.7696 21.4866 18.5959 22.6558 18.5959 24.0981C18.5959 25.5404 19.7696 26.7096 21.2173 26.7096Z" fill="black"/>
</svg>
