<svg width="51" height="106" viewBox="0 0 51 106" fill="none" xmlns="http://www.w3.org/2000/svg">
<path d="M49.9675 34.8283C49.9634 34.8072 49.9592 34.7861 49.955 34.765L47.6106 24.5934C47.1802 22.1413 44.677 17.5155 38.1745 17.1821C38.1453 17.1821 38.116 17.1779 38.0909 17.1779H20.6772C20.648 17.1779 20.6187 17.1779 20.5936 17.1821C14.0912 17.5155 11.588 22.1413 11.1576 24.5934L10.1755 28.8562L4.48795 31.0931C2.44026 31.7304 -0.965593 34.4949 0.258842 40.6612L3.39724 55.0787C3.4056 55.1083 3.40978 55.1378 3.41813 55.1674C3.45574 55.3024 4.37094 58.5354 7.22099 61.0551C9.23106 62.8319 10.9612 63.9377 11.6966 64.3767C13.9366 71.8978 16.1472 77.0426 17.1585 79.2331C19.06 83.3482 22.5619 83.7323 23.2598 83.7703L23.87 83.8294V88.1006C23.87 88.9278 24.4592 89.6115 25.2365 89.7593C25.3618 92.7432 25.9176 98.9222 28.2662 103.662C28.9808 105.101 30.41 105.996 32.0064 105.996C32.6499 105.996 33.2977 105.84 33.8744 105.548C34.8731 105.042 35.617 104.177 35.968 103.109C36.3191 102.037 36.2397 100.893 35.7382 99.8887C34.2923 96.968 33.7574 92.4562 33.6069 89.7424C34.3382 89.5609 34.8857 88.9025 34.8857 88.1048V83.8336L35.4958 83.7745C36.1979 83.7407 39.6998 83.3524 41.5971 79.2374C42.926 76.3631 46.3151 68.42 49.1192 56.6994C51.7812 45.6162 51.1753 41.1677 49.9675 34.8283ZM10.2716 59.2402C9.99581 59.0165 9.71164 58.776 9.4233 58.5185C7.4759 56.7965 6.73623 54.5765 6.64847 54.2979L3.53097 39.9648C2.62413 35.3939 5.21926 34.4021 5.4909 34.3134C5.54104 34.3008 5.59119 34.2839 5.63716 34.2628L9.25614 32.8362L8.81317 34.7608C8.80899 34.7819 8.80481 34.803 8.80063 34.8241C7.59291 41.1634 6.98696 45.6119 9.6406 56.691C9.84537 57.552 10.0543 58.3877 10.2674 59.2064C10.2674 59.2191 10.2674 59.2276 10.2716 59.2402ZM32.6625 103.096C32.4535 103.202 32.2279 103.252 32.0106 103.252C31.4757 103.252 30.9575 102.953 30.7025 102.438C28.6298 98.2595 28.1032 92.5913 27.9695 89.793H30.9031C31.041 92.4056 31.5383 97.5167 33.3186 101.117C33.678 101.843 33.3854 102.729 32.6625 103.096ZM29.5492 84.3611L31.0034 84.2176C31.1915 84.2978 31.3754 84.3949 31.5509 84.5004V86.4124H27.2173V84.5004C27.3886 84.3949 27.5683 84.2978 27.7564 84.2176L29.219 84.3611C29.2733 84.3654 29.3277 84.3696 29.382 84.3696C29.4363 84.3696 29.4948 84.3654 29.5492 84.3611ZM45.8805 55.9017C43.1475 67.3269 39.8628 75.0252 38.5799 77.8066C37.4516 80.2503 35.571 80.3896 35.3872 80.398C35.3328 80.398 35.2785 80.4022 35.2242 80.4065L33.0637 80.6217L29.3904 80.9847L25.7171 80.6217L23.5565 80.4065C23.5022 80.4022 23.4771 80.398 23.4228 80.398C23.2139 80.3896 21.3333 80.2503 20.2008 77.8066C19.1644 75.5654 16.8284 70.1209 14.53 62.106C14.5258 62.0976 14.5258 62.0891 14.5258 62.0807C13.9407 60.0463 13.3933 57.9656 12.9002 55.9017C10.4095 45.4938 10.9361 41.5475 12.0853 35.4952L13.2387 30.4854L14.4297 25.3067C14.4339 25.2814 14.4422 25.2434 14.4464 25.2181C14.53 24.7707 15.4076 20.8455 20.7274 20.5543H38.0533C43.3731 20.8455 44.2507 24.7707 44.3301 25.2054C44.3343 25.2392 44.3427 25.2772 44.351 25.3109L46.6954 35.4994C47.8446 41.5517 48.3712 45.498 45.8805 55.9017Z" fill="black"/>
<path d="M43.9708 36.8036L42.3703 29.2952C42.0485 27.3537 40.2097 23.7071 35.429 23.4454C35.3998 23.4454 35.3663 23.4412 35.3371 23.4412H23.4312C23.402 23.4412 23.3685 23.4412 23.3393 23.4454C18.5586 23.7113 16.7198 27.3579 16.398 29.2952L14.7975 36.8036C14.7933 36.8247 14.7891 36.8416 14.785 36.8627C13.9533 41.5897 13.5355 44.9029 15.3617 53.1541C15.813 55.1927 16.327 57.2481 16.8912 59.2571C17.0959 59.9831 17.752 60.4853 18.5001 60.4853H40.2641C41.0121 60.4853 41.6682 59.9831 41.873 59.2571C42.4371 57.2481 42.9511 55.1927 43.4025 53.1541C45.2287 44.9029 44.8149 41.5855 43.9792 36.8627C43.9792 36.8416 43.975 36.8205 43.9708 36.8036ZM40.1429 52.4198C39.796 53.9856 39.4116 55.5599 38.9937 57.1131H19.7746C19.3609 55.5599 18.9723 53.9856 18.6254 52.4198C16.9371 44.7974 17.2923 41.9105 18.0696 37.4831L19.6743 29.962C19.6785 29.9409 19.6869 29.9029 19.6911 29.8818C19.7412 29.5864 20.2886 27.0161 23.4814 26.8177H35.2911C38.4838 27.0161 39.0271 29.5906 39.0772 29.865C39.0814 29.8987 39.0898 29.9325 39.094 29.962L40.6945 37.4831C41.476 41.9105 41.827 44.7974 40.1429 52.4198Z" fill="black"/>
<path d="M35.4456 31.0721H23.3267C22.4031 31.0721 21.6551 31.8276 21.6551 32.7603C21.6551 33.6931 22.4031 34.4485 23.3267 34.4485H35.4456C36.3692 34.4485 37.1172 33.6931 37.1172 32.7603C37.1172 31.8276 36.3692 31.0721 35.4456 31.0721Z" fill="black"/>
<path d="M35.4456 37.2341H23.3267C22.4031 37.2341 21.6551 37.9896 21.6551 38.9223C21.6551 39.8551 22.4031 40.6105 23.3267 40.6105H35.4456C36.3692 40.6105 37.1172 39.8551 37.1172 38.9223C37.1172 37.9896 36.3692 37.2341 35.4456 37.2341Z" fill="black"/>
<path d="M35.4456 43.3961H23.3267C22.4031 43.3961 21.6551 44.1515 21.6551 45.0843C21.6551 46.017 22.4031 46.7725 23.3267 46.7725H35.4456C36.3692 46.7725 37.1172 46.017 37.1172 45.0843C37.1172 44.1515 36.3692 43.3961 35.4456 43.3961Z" fill="black"/>
<path d="M35.4456 49.5625H23.3267C22.4031 49.5625 21.6551 50.318 21.6551 51.2507C21.6551 52.1835 22.4031 52.939 23.3267 52.939H35.4456C36.3692 52.939 37.1172 52.1835 37.1172 51.2507C37.1172 50.318 36.3692 49.5625 35.4456 49.5625Z" fill="black"/>
<path d="M33.841 67.0355L30.0423 64.8197C29.6453 64.5876 29.1271 64.5876 28.7301 64.8197L24.9314 67.0355C24.5261 67.2719 24.2754 67.7108 24.2754 68.1835V72.6152C24.2754 73.1174 24.5512 73.5732 24.9983 73.7969L28.797 75.7257C28.9809 75.8186 29.1814 75.865 29.3862 75.865C29.591 75.865 29.7916 75.8144 29.9755 75.7257L33.7741 73.7969C34.2213 73.569 34.4971 73.1174 34.4971 72.6152V68.1835C34.4971 67.7108 34.2422 67.2719 33.841 67.0355ZM33.2894 72.6109C33.2894 72.6532 33.2685 72.6869 33.2309 72.7038L29.4322 74.6326C29.4029 74.6453 29.3653 74.6453 29.3361 74.6326L25.5332 72.7038C25.4956 72.6869 25.4747 72.6489 25.4747 72.6109V68.1793C25.4747 68.1413 25.4956 68.1076 25.529 68.0865L29.3277 65.8707C29.3444 65.8622 29.3611 65.858 29.382 65.858C29.3988 65.858 29.4196 65.8622 29.4364 65.8707L33.235 68.0865C33.2685 68.1034 33.2852 68.1413 33.2852 68.1793V72.6109H33.2894Z" fill="black"/>
<path d="M31.881 69.7327L30.736 69.1249C30.6649 69.087 30.5813 69.087 30.5103 69.1249L29.8626 69.4668V70.5177L30.6231 70.1126L31.087 70.3574V70.8469L30.7318 70.657C30.6607 70.619 30.5772 70.619 30.5061 70.657L29.8417 71.0115V68.3484C29.8417 68.2597 29.7957 68.1795 29.7247 68.1373C29.6536 68.0909 29.5617 68.0909 29.4865 68.1289L28.1408 68.8464L27.1086 68.2977C27.0334 68.2597 26.9415 68.2597 26.8704 68.3062C26.7994 68.3484 26.7534 68.4286 26.7534 68.5172V70.5557C26.7534 70.6486 26.8036 70.7288 26.883 70.771L28.028 71.3787C28.099 71.4167 28.1826 71.4167 28.2537 71.3787L28.8972 71.0369V69.9859L28.1367 70.3869L27.6728 70.1421V69.6525L28.0238 69.8424C28.0949 69.8804 28.1784 69.8804 28.2495 69.8424L28.9139 69.4879V72.1511C28.9139 72.2355 28.9599 72.3157 29.0309 72.3621C29.0686 72.3875 29.1145 72.3959 29.1563 72.3959C29.1939 72.3959 29.2357 72.3875 29.2691 72.3663L30.6148 71.6489L31.6428 72.1975C31.718 72.2397 31.81 72.2355 31.881 72.1933C31.952 72.1511 31.998 72.0709 31.998 71.9823V69.9437C32.0105 69.8551 31.9604 69.7749 31.881 69.7327Z" fill="black"/>
<path d="M16.1347 12.9953C16.2977 13.3456 16.7114 13.4933 17.0582 13.3287C17.1961 13.2612 17.309 13.1515 17.3758 13.0164L17.9818 11.8262L21.1452 14.6329C21.3166 14.7848 21.5799 14.768 21.7303 14.5949C21.8348 14.4767 21.864 14.3037 21.8013 14.156L19.0349 7.44947C18.8886 7.09072 18.4832 6.92189 18.128 7.07383C17.9776 7.13714 17.8522 7.2511 17.777 7.39882L17.1627 8.60591L13.7903 6.18329C13.6357 6.06933 13.4267 6.07777 13.2804 6.20017C13.1342 6.32257 13.0924 6.52938 13.1718 6.70242L16.1347 12.9953Z" fill="black"/>
<path d="M37.5937 14.6583L40.9661 12.2357L41.5804 13.4427C41.6556 13.5905 41.781 13.7044 41.9314 13.7677C42.2866 13.9155 42.692 13.7466 42.8383 13.3921L45.6047 6.68559C45.6674 6.53787 45.6382 6.36905 45.5337 6.24665C45.3833 6.07361 45.12 6.05672 44.9486 6.20866L41.7852 9.01535L41.1792 7.82515C41.1082 7.69009 40.9995 7.58035 40.8616 7.51282C40.5148 7.34822 40.1011 7.49594 39.9381 7.84625L36.9752 14.1391C36.8958 14.3122 36.9376 14.519 37.0838 14.6414C37.2259 14.7638 37.4391 14.7722 37.5937 14.6583Z" fill="black"/>
<path d="M26.9498 7.85462C27.0961 7.89682 27.2507 7.8926 27.3928 7.83773L28.6298 7.35659L29.1396 11.5772C29.1689 11.8093 29.3736 11.9697 29.6035 11.9444C29.7623 11.9233 29.8918 11.8177 29.9462 11.6658L32.2989 4.80313C32.4243 4.44016 32.2321 4.03921 31.8727 3.91259C31.718 3.85772 31.5509 3.86194 31.3963 3.92103L30.1426 4.4064L29.2232 0.329311C29.1814 0.139385 29.0184 0.00432641 28.8304 0.000105829C28.6423 -0.00411476 28.471 0.118282 28.4167 0.299767L26.4818 6.98517C26.369 7.35659 26.5821 7.74488 26.9498 7.85462Z" fill="black"/>
</svg>
