<svg width="27" height="21" viewBox="0 0 27 21" fill="none" xmlns="http://www.w3.org/2000/svg">
<path d="M26.0614 19.5002C26.0614 19.6502 25.9872 19.8001 25.8635 19.8752C25.7399 19.9502 25.5667 19.9502 25.443 19.8752L19.7043 16.8252L12.3576 20.7501C12.2339 20.8252 12.0608 20.8252 11.9371 20.7501C11.8134 20.6752 11.7393 20.5251 11.7393 20.3752V5.15012L7.06404 7.65016C6.94035 7.72513 6.79195 7.72513 6.66825 7.65016L3.60102 6.02514V10.4502L6.84149 12.1752L9.95815 10.5252V14.0752L7.06404 15.6251C6.94035 15.7002 6.79195 15.7002 6.66825 15.6251L0.731624 12.4752C0.583206 12.4002 0.509003 12.2502 0.509003 12.1001V1.50021C0.509003 1.35016 0.583206 1.20012 0.706886 1.12515C0.830566 1.05019 1.00372 1.05019 1.1274 1.10013L6.84149 4.20013L14.2129 0.25013C14.3366 0.200192 14.5097 0.200193 14.6334 0.275158C14.7571 0.350123 14.8312 0.50017 14.8312 0.650217V15.8752L19.5063 13.3751C19.63 13.3001 19.7784 13.3001 19.9021 13.3751L22.9447 15.0001V10.5502L19.7043 8.82516L16.5875 10.5001V6.92519L19.5063 5.37513C19.63 5.30016 19.7784 5.30016 19.9021 5.37513L25.8388 8.52518C25.9872 8.60015 26.0614 8.7502 26.0614 8.90013V19.5002Z" fill="white"/>
</svg>